<svg xmlns="http://www.w3.org/2000/svg" viewBox="0 0 24 24">
  <title>back-pack</title>
  <g>
    <path d="M5.5,23.5h-2a1,1,0,0,1-1-1V18A1.5,1.5,0,0,1,4,16.5H5.5v7Z" fill="none" stroke="#000" stroke-linecap="round" stroke-linejoin="round"/>
    <path d="M18.5,23.5h2a1,1,0,0,0,1-1V18A1.5,1.5,0,0,0,20,16.5H18.5v7Z" fill="none" stroke="#000" stroke-linecap="round" stroke-linejoin="round"/>
    <line x1="9.5" y1="10.5" x2="14.5" y2="10.5" fill="none" stroke="#000" stroke-linecap="round" stroke-linejoin="round"/>
    <line x1="2.5" y1="19.5" x2="5.5" y2="19.5" fill="none" stroke="#000" stroke-linecap="round" stroke-linejoin="round"/>
    <line x1="18.5" y1="19.5" x2="21.5" y2="19.5" fill="none" stroke="#000" stroke-linecap="round" stroke-linejoin="round"/>
    <path d="M7.5,10.5h-2a1,1,0,0,1-1-1v-6a3,3,0,0,1,3-3h9a3,3,0,0,1,3,3v6a1,1,0,0,1-1,1h-2" fill="none" stroke="#000" stroke-linecap="round" stroke-linejoin="round"/>
    <path d="M16.5,23.5h-9V18A1.5,1.5,0,0,1,9,16.5h6A1.5,1.5,0,0,1,16.5,18v5.5Z" fill="none" stroke="#555" stroke-linecap="round" stroke-linejoin="round"/>
    <rect x="7.5" y="7.5" width="2" height="5" fill="none" stroke="#555" stroke-linecap="round" stroke-linejoin="round"/>
    <rect x="14.5" y="7.5" width="2" height="5" fill="none" stroke="#555" stroke-linecap="round" stroke-linejoin="round"/>
    <line x1="7.5" y1="19.5" x2="16.5" y2="19.5" fill="none" stroke="#555" stroke-linecap="round" stroke-linejoin="round"/>
    <polyline points="18.5 10.5 18.5 23.5 5.5 23.5 5.5 10.5" fill="none" stroke="#000" stroke-linecap="round" stroke-linejoin="round"/>
  </g>
  <rect width="24" height="24" fill="none"/>
</svg>
