<?xml version="1.0" standalone="no"?>
<!DOCTYPE svg PUBLIC "-//W3C//DTD SVG 20010904//EN"
 "http://www.w3.org/TR/2001/REC-SVG-20010904/DTD/svg10.dtd">
<svg version="1.0" xmlns="http://www.w3.org/2000/svg"
 width="260.000000pt" height="260.000000pt" viewBox="0 0 260.000000 260.000000"
 preserveAspectRatio="xMidYMid meet">
<metadata>
Created by potrace 1.11, written by Peter Selinger 2001-2013
</metadata>
<g transform="translate(0.000000,260.000000) scale(0.100000,-0.100000)"
fill="#000000" stroke="none">
<path d="M1145 2569 c-554 -75 -982 -474 -1096 -1022 -30 -142 -30 -352 0
-494 108 -520 498 -906 1019 -1010 131 -26 366 -23 497 7 511 115 881 489 991
1002 25 116 25 380 0 496 -110 513 -485 892 -990 1001 -115 25 -316 35 -421
20z m574 -754 c17 -20 31 -39 31 -44 0 -4 45 1 99 12 107 21 131 19 131 -11 0
-29 -17 -38 -117 -57 l-91 -17 5 -37 c3 -20 7 -38 9 -39 1 -2 98 14 215 37
224 42 243 42 237 -3 -3 -19 -21 -24 -168 -53 -91 -18 -194 -38 -229 -45 l-65
-13 -13 -79 c-29 -171 -83 -367 -120 -439 -106 -204 -319 -290 -428 -173 l-30
32 -65 -67 c-55 -57 -74 -70 -122 -84 -108 -31 -199 6 -235 97 -8 21 -20 38
-27 38 -6 0 -48 -7 -94 -16 -78 -16 -84 -16 -100 0 -32 32 -4 49 110 70 l105
19 10 44 c6 23 7 43 4 43 -3 0 -89 -16 -191 -35 -102 -20 -196 -34 -210 -33
-26 3 -39 33 -22 50 5 5 108 28 228 51 l218 42 67 293 c37 161 72 299 79 307
7 8 23 15 36 15 53 0 50 -22 -40 -395 -105 -437 -99 -406 -86 -454 12 -46 33
-61 86 -61 75 0 165 81 213 192 10 24 58 205 105 402 47 197 91 366 97 377 19
37 79 18 79 -26 0 -12 -38 -180 -85 -373 -47 -193 -85 -372 -85 -397 0 -118
127 -128 232 -19 76 78 119 201 173 497 35 192 32 225 -22 309 -20 30 -23 40
-13 57 17 32 53 26 89 -14z"/>
</g>
</svg>
