<svg xmlns="http://www.w3.org/2000/svg" viewBox="0 0 191.72 38.24"><title>fldwrk-logo</title><rect y="0.15" width="191.72" height="37.73" fill="#464242"/><path d="M48.15,49.9V16.29a1.09,1.09,0,0,0-1-1.09H46a1.1,1.1,0,0,0-1.09,1.09V51.83A1.1,1.1,0,0,0,46,52.92H58.34a1,1,0,0,0,.8-.36,1,1,0,0,0,.05-.84l-.41-1.2a.91.91,0,0,0-.87-.63Z" transform="translate(-12.39 -15.05)" fill="#1d1111"/><path d="M115.23,52.09,104.79,15.73a.91.91,0,0,0-.86-.67h-1.47a1,1,0,0,0-.83.31,1,1,0,0,0-.13.89l10.44,36.37a.91.91,0,0,0,.86.67h1.47a1,1,0,0,0,.83-.31,1,1,0,0,0,.14-.86Z" transform="translate(-12.39 -15.05)" fill="#1d1111"/><path d="M135.69,52.09,125.26,15.73a.91.91,0,0,0-.86-.67h-1.47a1,1,0,0,0-.83.31,1,1,0,0,0-.13.89l10.44,36.37a.91.91,0,0,0,.86.68h1.47a1,1,0,0,0,.83-.31,1,1,0,0,0,.14-.86Z" transform="translate(-12.39 -15.05)" fill="#1d1111"/><path d="M183.32,30.29v-14a1.15,1.15,0,0,0-1.19-1.19h-.95A1.14,1.14,0,0,0,180,16.24V51.68a1,1,0,0,0,1.09,1.09h1.05a1.06,1.06,0,0,0,1.19-1.09V30.29Z" transform="translate(-12.39 -15.05)" fill="#1d1111"/><path d="M74.77,52.92H76A18.63,18.63,0,0,0,94.54,34a18.9,18.9,0,0,0-19-18.8h-9a1,1,0,0,0-.8.37,1,1,0,0,0-.05.82l.41,1.27a.9.9,0,0,0,.87.6h8.15A15.67,15.67,0,0,1,91.1,34c0,9-6.47,15.84-15.56,15.84H74.37a1,1,0,0,0-.8.37,1,1,0,0,0,0,.82l.41,1.27A.9.9,0,0,0,74.77,52.92Z" transform="translate(-12.39 -15.05)" fill="#1d1111"/><path d="M166.52,26.74c0-6.55-5.34-11.69-12.16-11.69H143a1,1,0,0,0-.79.37,1,1,0,0,0-.06.86l.41,1.36a.91.91,0,0,0,.87.63h10.77a8.74,8.74,0,0,1,9,8.46,8.77,8.77,0,0,1-8.11,8.73H149a1,1,0,0,0-.79.37,1,1,0,0,0-.06.86l.41,1.36a.89.89,0,0,0,.87.63h5.17L162,52.07a1.15,1.15,0,0,0,1.1.7h1.63a.87.87,0,0,0,.8-.44,1.11,1.11,0,0,0-.08-1.11L158,38A11.91,11.91,0,0,0,166.52,26.74Z" transform="translate(-12.39 -15.05)" fill="#1d1111"/><path d="M200.3,52.24a1.15,1.15,0,0,0,1.1.7H203a.87.87,0,0,0,.8-.44,1.11,1.11,0,0,0-.08-1.11L194,34.15l9.9-17.54A1.11,1.11,0,0,0,204,15.5a.87.87,0,0,0-.8-.44h-1.63a1.15,1.15,0,0,0-1.1.7l0,.05-.09.15-.14.25-.19.34-.23.42-.27.49-.31.56-.35.62-.38.67-.4.72-.42.76-.44.79-.46.82-.47.84-.48.86-.48.86-.48.86-.48.85-.47.84-.46.82-.44.79-.42.76-.4.72-.37.67-.34.62-.31.56-.27.49-.23.41-.19.33-.14.25c-.11.2,0,.38.09.56l.17.31.22.4.26.47.3.55.34.61.37.67.4.72.42.76.44.79.46.82.47.84.48.86.48.87.48.87.48.86.47.85.46.82.44.8.42.76.4.72.37.67.34.61.31.55.27.48.22.4.18.32.12.22.07.12Z" transform="translate(-12.39 -15.05)" fill="#1d1111"/><path d="M23.24,33.43H15.73V18.27h17.6a.9.9,0,0,0,.85-.6l.41-1.28a1,1,0,0,0-.05-.82,1.06,1.06,0,0,0-.83-.37H13.48a1.1,1.1,0,0,0-1.09,1.09V51.83a1.1,1.1,0,0,0,1.09,1.09h.95a1.15,1.15,0,0,0,1.25-1.09l.05-15.26h8.44A.9.9,0,0,0,25,36L25.3,35c.12-.47.28-.92.07-1.23a.87.87,0,0,0-.83-.37" transform="translate(-12.39 -15.05)" fill="#1d1111"/></svg>