<?xml version="1.0" encoding="utf-8"?>
<!-- Generator: Adobe Illustrator 21.1.0, SVG Export Plug-In . SVG Version: 6.00 Build 0)  -->
<svg version="1.1" id="Layer_1" xmlns="http://www.w3.org/2000/svg" xmlns:xlink="http://www.w3.org/1999/xlink" x="0px" y="0px"
	 viewBox="0 0 28.9 94.3" style="enable-background:new 0 0 28.9 94.3;" xml:space="preserve">
<style type="text/css">
	.st0{fill:#EBEBEC;}
	.st1{fill:none;stroke:#000000;stroke-width:3;stroke-linecap:round;stroke-linejoin:round;stroke-miterlimit:10;}
	.st2{fill:#FFFFFF;}
	.st3{fill:none;stroke:#000000;stroke-width:10.688;stroke-linecap:round;stroke-linejoin:round;stroke-miterlimit:10;}
</style>
<g>
	<g>
		<g>
			<path d="M9.7,1.3c-2.4,2.9-6,4.6-8.4,7.4c-1.6,1.8-1.8,4.5,0,6.3c1.6,1.6,4.7,1.8,6.3,0c2.4-2.9,6-4.6,8.4-7.4
				c1.6-1.8,1.8-4.5,0-6.3C14.4-0.3,11.2-0.6,9.7,1.3L9.7,1.3z"/>
		</g>
	</g>
	<g>
		<g>
			<path d="M24.4,43.7c-2.5,0-5,0-7.5,0c-2.3,0-4.6,2-4.5,4.5c0.1,2.4,2,4.5,4.5,4.5c2.5,0,5,0,7.5,0c2.3,0,4.6-2,4.5-4.5
				C28.8,45.7,26.9,43.7,24.4,43.7L24.4,43.7z"/>
		</g>
	</g>
	<g>
		<g>
			<path d="M16,86.7c-2.3-2.4-4.6-4.8-6.9-7.3c-1.7-1.7-4.6-1.7-6.3,0c-1.7,1.7-1.7,4.6,0,6.3c2.3,2.4,4.6,4.8,6.9,7.3
				c1.7,1.7,4.6,1.7,6.3,0C17.7,91.3,17.7,88.4,16,86.7L16,86.7z"/>
		</g>
	</g>
</g>
</svg>
