<?xml version="1.0" encoding="utf-8"?>
<!-- Generator: Adobe Illustrator 20.1.0, SVG Export Plug-In . SVG Version: 6.00 Build 0)  -->
<svg version="1.1" id="Layer_1" xmlns="http://www.w3.org/2000/svg" xmlns:xlink="http://www.w3.org/1999/xlink" x="0px" y="0px"
	 viewBox="0 0 292.5 186.4" style="enable-background:new 0 0 292.5 186.4;" xml:space="preserve">
<style type="text/css">
	.st0{fill:#118B6F;}
	.st1{fill:#FFFFFF;}
</style>
<g>
	<path d="M140.4,71.3c0.1-0.3,0.1-0.5,0.1-0.8c0-0.2,0-0.5,0-0.7c0-0.1,0-0.1,0-0.2c-0.1-0.8-0.6-1.3-1.5-1.5
		c-1.3-0.3-2.3,0.3-2.8,1.9c0,0,0,0,0,0c0,0.1-0.1,0.2-0.1,0.3c0,0.1-0.1,0.2-0.1,0.4c0,0.1,0,0.1-0.1,0.2c0,0.2-0.1,0.3-0.1,0.5
		c-2.2,9.1-4.3,18.2-6.5,27.3c-1.3,5.2-2,10.6-4.6,15.5c-1.9,3.5-4.4,6.4-8.8,7c-4.4,0.7-7.1-1.6-6.8-5.9c0.1-1.6,0.4-3.2,0.8-4.8
		c2.4-10,4.8-19.9,7.2-29.9c0-0.1,0.1-0.2,0.1-0.4c0.4-1.5,0.7-3,1.1-4.4c0.1-0.2,0.1-0.4,0.2-0.7c0.4-1.9,0-2.9-1.4-3.2
		c-1.4-0.3-2.4,0.4-2.9,2.3c-0.1,0.4-0.3,1.1-0.5,1.9c-2.9,12-5.8,24-8.7,36c-0.9,3.7-2.3,7.3-5,10.1c-1.8,1.9-4,2.9-6.6,3.2
		c-3.1,0.3-5.2-1.1-5.6-4.1c-0.2-1.5-0.1-3.1,0.2-4.7c0.7-3.4,1.5-6.8,2.4-10.2c2.1-8.9,4.2-17.9,6.4-26.8c0.4-1.9,0-2.9-1.4-3.2
		c-1.4-0.3-2.4,0.4-2.9,2.3c-0.2,0.8-0.4,1.6-0.7,2.5c-1.7-1.9-3.7-3-6.1-3.2c-3.4-0.3-6.6,0.4-9.4,2.3c-4.1,2.8-6.4,6.9-7.7,11.4
		c-2.2,8-4.2,16-6.2,24.1c-0.7,2.9-1.3,5.9-1.4,8.9c-0.2,4,2.7,7.6,6.5,8.4c5,1.1,9.6,0,13.1-3.6c1.3-1.4,2.7-3,3.7-4.6
		c1.2,2.3,3,3.7,5.6,4.2c4.5,0.8,8.5-0.4,11.9-3.4c1.4-1.2,3-3.2,4.2-4.8c4.3,5.3,10.2,5.6,18,0.9c-1.3,6.1-9.7,35.2-11.9,39.9
		c-1.8,3.9-4.5,8.7-7.6,11.6c-2.6,2.5-5.6,4.6-9,5.8c-1,0.4-2,0.6-3,0.8c-2,0.4-4,0.4-6.1,0.2c-6.8-0.8-9.8-6.7-8.1-12.1
		c1.1-3.4,3.6-5.6,7.2-6.7c1.5-0.5,1.9-1.4,1.5-2.5c-0.3-0.9-1.3-1.5-2.4-1.2c0,0-0.2,0-0.3,0.1l-26.1,4.9c-1.1,0.2-1.8,1.3-1.6,2.4
		c0.2,1,1,1.6,2,1.6c0.1,0,0.3,0,0.4,0l16.9-3.2c-0.6,0.9-1.1,1.8-1.6,2.8c-3.3,7.8,1.6,16.4,10.3,17.7c1.9,0.3,3.9,0.5,5.8,0.3
		c2.5-0.2,5-0.9,7.4-1.9c1.1-0.5,2.2-1,3.2-1.5c0.2-0.1,0.3-0.2,0.5-0.3c0.3-0.2,0.6-0.3,0.9-0.5c3.4-2.1,6.3-5,8.7-8.3
		c1.9-2.8,3.5-5.8,4.8-8.9c1.2-2.8,2.2-5.7,3.2-8.6c1.1-3.2,2.1-6.4,3.1-9.6c0.9-2.9,1.8-5.9,2.6-8.8c0.6-2.1,1.2-4.2,1.7-6.3
		c0-0.2,0.1-0.3,0.1-0.5c4-16.4,7.9-32.9,11.8-49.4c0.3-1.1,0.5-2.3,0.8-3.4L140.4,71.3z M83.4,115.7c-1,4.1-2.4,8.1-5.6,11.1
		c-1.4,1.3-2.7,2.1-4.6,2.7c-1.9,0.6-4.7,0.5-6.3-0.8c-1.6-1.3-2-3.4-1.8-5.3c0.3-2.7,1-5.3,1.7-8c1.7-7.1,3.4-14.1,5.3-21.2
		c0.9-3.3,2.2-6.5,4.7-9.1c2.3-2.3,5-3.4,8.3-3.1c3,0.3,4.8,2.3,4.5,5.1c-0.3,3.2-1,6.4-1.7,9.5C86.5,103.1,85,109.4,83.4,115.7z"/>
	<path d="M56.4,96.4c-0.2-3.6-1.1-7.1-3.8-10c-0.9-1-1.9-1.4-3-0.6c-1,0.7-1.3,2-0.4,3.1c2.9,3.4,3.4,7.3,2.8,11.3
		c-0.9,5.7-2.1,11.4-3.3,17.1c-0.8,4.2-2.1,8.3-4.3,12.1c-2,3.3-4.4,6.2-8.4,7.6c-3.9,1.4-7-0.3-7.4-4.2c-0.2-1.6,0-3.2,0.4-4.8
		c2.8-11.8,5.7-23.7,8.6-35.5c0.2-0.7,0.3-1.4,0.3-2.1c0-1-0.5-1.8-1.6-2c-1.1-0.2-2,0.1-2.5,1.1c-0.3,0.7-0.5,1.5-0.7,2.3
		c-2.8,11.6-5.5,23.2-8.4,34.8c-1,4-2.8,7.7-5.6,10.9c-1.8,2.1-4.1,3.7-7,4.1c-1.4,0.2-2.7,0-3.7-0.6c-0.2-0.1-0.3-0.2-0.5-0.4
		c-1.5-1.3-1.8-3.4-1.6-5.3c0.1-1.3,0.5-3.5,0.9-5.5c0.9-3.9,1.8-7.8,2.8-11.7c1.8-7.4,3.6-14.7,5.4-22.1c0-0.1,0-0.2,0.1-0.3
		c0.3-1.7-0.2-2.8-1.5-3.1c-1.3-0.3-2.4,0.4-2.8,2c-0.6,2.8-1.3,5.5-1.9,8.3c-0.6,2.8-1.3,5.5-1.9,8.3c-0.6,2.8-1.3,5.5-1.9,8.3
		c-1,4.4-2.3,8.7-3,13.2c-0.2,1.2-0.3,2.4-0.4,3.6c-0.2,3.8,1.7,7.3,4.9,8.6c3.9,1.6,8.4,0.5,11.7-1.9c0.9-0.7,1.8-1.5,2.6-2.3
		c1.3-1.2,2.4-2.7,3.5-4.6c1.5,3.4,4.1,5,7.6,5.2c2.8,0.1,5.3-0.6,7.7-1.9c4.5-2.5,7.2-6.4,9.4-10.7c2.1-4,2.9-8.4,3.8-12.7
		C55,109.6,56.8,103.2,56.4,96.4z"/>
	<path d="M88.5,150.6c1.1-0.2,1.8-1.3,1.6-2.4c-0.2-0.9-1-1.6-2-1.6c-0.1,0-0.3,0-0.4,0l-16.2,3.1v0l-29.7,5.6
		c-1.1,0.2-1.8,1.3-1.6,2.4c0.2,0.9,1,1.6,2,1.6c0.1,0,0.3,0,0.4,0l28.9-5.5L88.5,150.6z"/>
	<path d="M195.2,36.4c-1.1,0.2-1.8,1.3-1.6,2.4c0.2,0.9,1,1.6,2,1.6c0.1,0,0.3,0,0.4,0l16.2-3.1v0l30.4-5.9c1.1-0.2,1.8-1.3,1.6-2.4
		c-0.2-0.9-1-1.6-2-1.6c-0.1,0-0.3,0-0.4,0l-29.5,5.7L195.2,36.4z"/>
	<path d="M289.4,73.4c-0.9-0.3-1.9,0.1-2.4,0.9c-0.1,0.1-0.1,0.2-0.2,0.4c-0.9,2.8-2.4,5.5-4.1,8c-0.5,0.7-1,1.4-1.5,2.1
		c-3.5,4.4-8.3,7-14.4,7.1c-3.9,0-7.3-2.1-8.3-5.4c-1.7-5.4,0.4-10.3,1.5-15.3c6.7,2.1,12.4,0.7,16.7-4c5-5.4,6.8-12.1,6.3-19.3
		c-0.2-3.1-3-5.8-6.1-6.2c-4.2-0.6-8,0.4-11.2,3.2c-2.5,2.2-4.4,5-5.3,8.1c-2.3,7.8-4.3,15.7-6.3,23.6c-0.9,3.6-1.3,7.2-2.4,10.7
		c-1.3,4.2-3.7,7.8-8.4,9.4c-4.6,1.6-8.1-0.7-7.8-5.4c0.1-1.5,0.3-3,0.6-4.5c1.8-7.5,1.3-5.7,3.2-13.2c0.8-3.1,1.2-6.2,0.3-9.4
		c-1.4-4.7-4.9-6.9-9.9-6.1c-0.5,0.1-1,0.1-1.6,0.2c-1.3,0.1-2.1-0.5-2.2-1.7c-0.1-1.2,0-2.5,0.2-3.7c0.2-1.3-0.3-2.2-1.6-2.5
		c-1.2-0.3-2.4,0.5-2.7,1.7c-0.2,0.8-0.3,1.7-0.5,2.5c-3.7,15.4-4.9,21.5-8.8,36.8c-0.7,2.9-2.1,5.7-3.5,8.4
		c-1.6,2.8-4.2,4.5-7.6,5.1c-3.5,0.6-5.8-0.9-6.1-4.2c-0.2-1.5-0.1-3,0.2-4.5c1-4.5,2.1-9.1,3.2-13.6c1.8-7.8,3.7-15.5,5.5-23.3
		c0.5-1.9-0.1-3-1.5-3.3c-1.4-0.3-2.4,0.5-2.9,2.4c-0.2,0.8-0.4,1.6-0.6,2.4c-2.5-2.3-4.3-3.1-6.9-3.2c-4.7-0.2-8.5,1.5-11.5,4.9
		c-2.9,3.3-4.6,7.2-5.6,11.4c-1.8,6.8-3.5,13.7-5.1,20.6c-0.8,3.2-1.5,6.5-1.6,9.8c-0.2,5,3.5,8.5,8.7,8.8c5.6,0.3,9.7-1.8,12.5-5.8
		c0.5-0.8,1.2-2.1,1.7-2.9c2.1,3.3,4.8,4.6,8.1,4.6c5,0.1,8.9-2,11.9-5.8c3.1-3.9,4.6-8.4,5.7-13.1c2.9-12.1,3.6-14.9,6.6-27
		c0.1-0.6,0.4-1.2,0.6-1.9c1.9,1.4,3.8,1.3,5.8,1c3.1-0.4,4.8,0.8,5.5,3.6c0.7,2.7-0.1,5.3-0.7,7.9c-1.9,7.8-1.4,6.2-3.3,14
		c-0.6,2.6-0.6,5.2,0.3,7.8c1,3,2.9,5,6.3,5.5c5.7,0.9,10.1-1.3,13.7-5.5c1.3-1.6,2.6-3.4,3.3-4.9c1.5,2.5,5,4.8,8.7,5.2
		c8.5,1,15.3-2.1,20.9-8.1c2.2-2.3,3.8-5.1,4.9-8c0.4-1.2,0.8-2.4,1.2-3.6C291.1,74.9,290.5,73.8,289.4,73.4z M265.3,52.8
		c1.2-3.4,3.5-6,7.3-7.1c3.5-1,6.1,0.6,6,4.2c-0.2,5.4-1.4,10.5-5.3,14.6c-3,3.2-8.1,4.2-12.3,2.5C262.5,62.2,263.7,57.5,265.3,52.8
		z M191,95.6c-1,3.9-2.4,7.7-5.5,10.5c-1.2,1.1-2.9,2.2-4.5,2.6c-0.2,0.1-0.4,0.1-0.7,0.1c-1.7,0.3-3.4,0.3-4.9-0.5
		c-2.1-1.1-2.7-3.6-2.5-5.8c0.1-0.7,0.2-1.4,0.3-2.1c1.5-6.3,3-12.7,4.7-19c1.1-4.2,2.2-8.4,3.7-12.5c0.9-2.6,2.6-4.8,5.1-6.3
		c2-1.2,4.1-1.7,6.5-1.4c2.7,0.4,4.5,2.3,4.3,5c-0.2,2.7-0.8,5.4-1.4,8C194.5,81.5,192.8,88.6,191,95.6z"/>
	<path d="M227.7,21.5c-0.2-0.9-1-1.6-2-1.6c-0.1,0-0.3,0-0.4,0l-17.6,3.4c0.6-0.9,1.1-1.8,1.5-2.8c2.9-6.9-1-15.5-8.4-17.3
		C194,1.5,187.3,3,181.2,6.6c-5.9,3.6-10.1,9.3-12.7,15.5c-0.9,2.2-1.8,4.5-2.6,6.7c-0.9,2.6-1.8,5.3-2.6,7.9
		c-0.8,2.7-1.7,5.4-2.4,8c-1,3.4-1.9,6.8-2.8,10.2c-0.2,0.9-0.5,1.8-0.7,2.7c-0.5,1.8-0.9,3.7-1.4,5.5c0,0-0.2,0.7-0.4,1.7
		c-0.4,0.1-0.8,0.1-1.2,0.2c-1.2,0.2-2.4,0.3-3.2,1c-0.6,0.4-0.8,1.4-0.7,1.9c0.1,0.5,0.3,0.9,0.8,1.1c0.4,0.2,1,0.2,1.5,0.2
		c0.5-0.1,0.9-0.1,1.3-0.2c0.2,0,0.6-0.1,0.8-0.2l-1.5,6.7c-1.1,4.5-2.1,8.9-3.2,13.4c-1.5,6.1-2.9,12.2-4.7,18.2
		c-1.3,4.4-3.7,8.2-8.4,9.9c-1,0.3-1.6,1.3-1.4,2.3c0.2,0.9,1,1.6,2,1.6c1,0,1.9-0.6,2.8-1c0.4-0.2,2.8-1.7,3.2-2c0,0,0,0,0,0
		c0.1,0,0.1-0.1,0.2-0.1c2.1-1.6,3.6-3.2,4.8-5.5c0-0.1,0.1-0.2,0.1-0.3c1.5-3.2,2.1-6.7,2.9-10.1c0.8-3.6,1.7-7.1,2.5-10.7
		c1.7-7.2,3.5-14.7,5.2-21.9c0.3-1.3,0.8-1.4,2-1.6c2.2-0.3,4.5-0.8,6.7-1.3c0.3-0.1,0.7-0.2,1-0.3c0.4-0.1,0.8-0.2,1.3-0.3
		c0.2,0,0.4-0.1,0.6-0.1c1.8-0.4,2.4-1.2,2.1-2.5c-0.3-1.3-1.2-1.6-3-1.3c-0.4,0.1-1.1,0.2-1.8,0.4c-0.5,0.1-0.9,0.2-1.4,0.3
		c-2.2,0.4-4.3,0.8-6.5,1.3c0.1-0.4,0.2-0.7,0.2-0.8c1-3.9,1.9-7.7,2.9-11.6c0.3-1.2,0.6-2.4,1-3.5c0.4-1.5,0.9-2.9,1.3-4.4
		c0.3-1.1,0.6-2.1,1-3.2c1.2-4,2.4-8,3.8-11.9c0.4-1.2,0.8-2.5,1.3-3.6c2.6-5.8,6.1-11.1,11.5-14.8c4.2-2.8,9.1-4.3,14.2-3.7
		c6.8,0.8,9.8,6.7,8.1,12.1c-1.1,3.4-3.6,5.6-7.2,6.7c-1.5,0.5-1.9,1.4-1.5,2.5c0.3,0.9,1.3,1.4,2.4,1.2c0,0,0.2,0,0.3-0.1l26.7-5.2
		C227.3,23.6,228,22.6,227.7,21.5z"/>
</g>
</svg>
