<svg xmlns="http://www.w3.org/2000/svg" viewBox="0 0 119.5 233.3">
	<title>arrow</title>
<path d="M1.4,157.7c2.3,1.4,4.8,2.4,6.4,4.1c3.4,3.8,6.3,8,9.6,11.9c3.1,3.7,6.5,7.3,9.9,10.8c1.8,1.9,3.9,3.5,5.9,5.2
	c6.4,5.7,12.9,11.4,19.2,17.3c2.6,2.4,4.8,5.2,7.3,7.9c0.4,0.4,0.9,0.6,1.8,1.3c-0.4-3-0.3-5.5-1.2-7.7c-1.3-3-0.1-5.4,0.8-8
	c0.6-1.7,1.4-3.5,1.4-5.3c0.2-27.7,0.3-55.3,0.3-83c0-14.9-0.2-29.7-0.4-44.6c-0.1-9.3-0.8-18.6-0.6-27.9c0.2-9.3,0.9-18.5,2-27.7
	c0.5-4.5,2.3-8.9,6.8-11.4c2.8-1.6,7.2,0.7,7.4,3.9c0.1,1.9,0,3.8,0.1,5.7c0.2,3.7,0.7,7.4,0.6,11.2c-0.1,7.9-0.5,15.8-0.9,23.7
	c-0.2,4-0.7,8.1-0.9,12.1c-0.7,12-1.4,24-2.1,36c-0.4,7-0.7,13.9-0.9,20.9c-0.4,12.9-0.9,25.8-1.2,38.6c-0.1,8.4,0,16.8,0.4,25.2
	c0.4,7.8,1.2,15.7,2,23.5c0.1,1,0.6,1.9,1.2,3.4c2.8-2.8,5.3-5.3,7.7-7.8c4.5-4.7,8.9-9.5,13.3-14.3c4.4-4.8,10.2-7.7,16-10.2
	c1.5-0.7,3.6-0.1,6.2-0.1c-0.8,1.6-1.2,3.2-2.1,4.1c-5.5,5.7-10.9,11.5-16.9,16.7c-7.6,6.6-14.3,14-20.8,21.6c-3.5,4-6,8.9-9.3,13
	c-1.8,2.2-4.2,4.3-6.7,5.3c-2.8,1.1-6.6-2-8.1-6.1c-1.9-5.3-4.6-10.1-8.6-14c-3.7-3.7-7.5-7.2-11.4-10.7c-2.9-2.7-5.9-5.3-9-7.8
	c-1.5-1.2-3.5-2-5.1-3.2c-5.3-3.8-8-9.8-12.3-14.4c-2.2-2.3-4.3-4.7-6.7-6.7c-2.4-1.9-2.8-4.2-2.3-6.9
	C0.5,161.7,0.9,160.1,1.4,157.7z" fill="#000"/>
</svg>
