<svg xmlns="http://www.w3.org/2000/svg" viewBox="0 0 24 24">
  <title>binoculars</title>
  <g>
    <path d="M10.5,6V2a2.28,2.28,0,0,0-3,0L6,6,4.5,7.53l-3,7" fill="none" stroke="#000" stroke-linecap="round" stroke-linejoin="round"/>
    <path d="M13.5,6V2.1a2.28,2.28,0,0,1,3,0L18,6l1.5,1.5,3,7" fill="none" stroke="#000" stroke-linecap="round" stroke-linejoin="round"/>
    <line x1="10.5" y1="17.53" x2="10.5" y2="8.18" fill="none" stroke="#000" stroke-linecap="round" stroke-linejoin="round"/>
    <line x1="13.5" y1="17.53" x2="13.5" y2="8.18" fill="none" stroke="#000" stroke-linecap="round" stroke-linejoin="round"/>
    <path d="M2.5,17.53a3,3,0,0,1,3-3" fill="none" stroke="#000" stroke-linecap="round" stroke-linejoin="round"/>
    <path d="M15.5,17.53a3,3,0,0,1,3-3" fill="none" stroke="#000" stroke-linecap="round" stroke-linejoin="round"/>
    <circle cx="5.5" cy="17.53" r="5" fill="none" stroke="#555" stroke-linecap="round" stroke-linejoin="round"/>
    <circle cx="18.5" cy="17.53" r="5" fill="none" stroke="#555" stroke-linecap="round" stroke-linejoin="round"/>
    <path d="M8,10c0-1.1,1.79-2,4-2s4,0.9,4,2" fill="none" stroke="#555" stroke-linecap="round" stroke-linejoin="round"/>
  </g>
  <rect width="24" height="24" fill="none"/>
</svg>
