<svg xmlns="http://www.w3.org/2000/svg" viewBox="0 0 30 30"><title>chat-circle</title><ellipse cx="14.85" cy="15.11" rx="14.28" ry="14.34" fill="none" stroke="#000" stroke-linejoin="round" stroke-width="0.98"/><path d="M18.11,12.28c0,2.81-2.69,5.09-6,5.09a7,7,0,0,1-2.1-.32L6.55,18.73l1.35-2.8a4.73,4.73,0,0,1-1.8-3.64c0-2.81,2.69-5.09,6-5.09S18.11,9.47,18.11,12.28Z" fill="none" stroke="#000" stroke-linejoin="round" stroke-width="0.98"/><path d="M19.22,13.48h3.92a.48.48,0,0,1,.47.48v6.3a.48.48,0,0,1-.47.48h-.93v1.94l-1.86-1.94h-7a.48.48,0,0,1-.47-.48V18.57" fill="none" stroke="#555" stroke-linecap="round" stroke-linejoin="round"/></svg>