<svg version="1.1" id="Layer_1" xmlns="http://www.w3.org/2000/svg" xmlns:xlink="http://www.w3.org/1999/xlink" x="0px" y="0px"
	 viewBox="0 0 29.1 25.3" enable-background="new 0 0 29.1 25.3" xml:space="preserve">
<g id="Outline_Icons_1_">
	<g id="Outline_Icons">
		<g>
			<path fill="none" stroke="#000" stroke-linejoin="round" stroke-miterlimit="10" d="M20.3,10.4c0.4-0.4,1-0.4,1.4,0l1.4,1.4
				c0.4,0.4,0.4,1,0,1.4l-3.5,3.5c-0.4,0.4-1,0.4-1.4,0l-1.4-1.4c-0.4-0.4-0.4-1,0-1.4L20.3,10.4z"/>

				<rect x="7.1" y="12.9" transform="matrix(0.7071 -0.7071 0.7071 0.7071 -6.6005 11.935)" fill="none" stroke="#000" stroke-linejoin="round" stroke-miterlimit="10" width="8" height="2"/>

				<rect x="0.6" y="17.9" transform="matrix(0.7071 -0.7071 0.7071 0.7071 -12.6109 9.4454)" fill="none" stroke="#555" stroke-linejoin="round" stroke-miterlimit="10" width="9" height="4"/>
			<path fill="none" stroke="#000" stroke-linejoin="round" stroke-miterlimit="10" d="M16.8,13.9l3.5-3.5l-9.9-9.9L9.3,1.6
				c1.4,1.4,1.4,3.6,0,4.9L16.8,13.9z"/>
		</g>
	</g>
	<g id="New_icons_1_">
	</g>
	<polyline fill="none" stroke="#555" stroke-linecap="round" stroke-linejoin="round" stroke-miterlimit="10" points="25,14 
		28.6,14.6 25,16.3 27,21.6 22.9,19.3 20.3,24.8 18.9,20.1 13.5,20.4 16.4,18.4 	"/>
</g>
</svg>
