<svg xmlns="http://www.w3.org/2000/svg" viewBox="0 0 24 24">
  <title>map-mountain-forest</title>
  <g>
    <g>
      <path d="M3,7.5l2.77-6a2,2,0,0,1,3.47,0L11,4.36a1,1,0,0,1,1.93-.2L14.5,7.5H3Z" fill="none" stroke="#000" stroke-linecap="round" stroke-linejoin="round"/>
      <g>
        <path d="M10,9.75s0,0.18,0,.49" fill="none" stroke="#555" stroke-linecap="round" stroke-linejoin="round"/>
        <path d="M10.42,12.2a8.11,8.11,0,0,0,3,4.5c3.08,2.13,8.52.76,9.46,5.29" fill="none" stroke="#555" stroke-linecap="round" stroke-linejoin="round" stroke-dasharray="1 2"/>
        <path d="M23,23c0,0.16,0,.33,0,0.5" fill="none" stroke="#000" stroke-linecap="round" stroke-linejoin="round"/>
      </g>
    </g>
    <g>
      <path d="M5.79,14.75a0.62,0.62,0,1,0,.82-0.93L4.5,11.51,2.37,13.82a0.62,0.62,0,1,0,.83.92L1.52,16.87a0.62,0.62,0,1,0,.89.87l-1.33,1.7a0.62,0.62,0,0,0,.44,1.06h6a0.62,0.62,0,0,0,.44-1.06l-1.3-1.69a0.62,0.62,0,0,0,.88-0.89Z" fill="none" stroke="#000" stroke-linecap="round" stroke-linejoin="round"/>
      <line x1="4.5" y1="20.5" x2="4.5" y2="22.51" fill="none" stroke="#000" stroke-linecap="round" stroke-linejoin="round"/>
    </g>
    <g>
      <path d="M20.79,7.75a0.62,0.62,0,1,0,.83-0.93L19.5,4.51,17.37,6.82a0.62,0.62,0,1,0,.83.92L16.52,9.87a0.62,0.62,0,1,0,.89.87l-1.33,1.7a0.62,0.62,0,0,0,.44,1.06h6a0.62,0.62,0,0,0,.44-1.06l-1.3-1.69a0.62,0.62,0,0,0,.88-0.89Z" fill="none" stroke="#000" stroke-linecap="round" stroke-linejoin="round"/>
      <line x1="19.5" y1="13.5" x2="19.5" y2="15.51" fill="none" stroke="#000" stroke-linecap="round" stroke-linejoin="round"/>
    </g>
  </g>
  <rect width="24" height="24" fill="none"/>
</svg>
