<svg xmlns="http://www.w3.org/2000/svg" viewBox="0 0 24 24">
  <g>
    <path d="M7.2,9.53L0.63,21.84a1.13,1.13,0,0,0,1.53,1.52l12.35-6.58" fill="none" stroke="#000" data-stroke-color="1" stroke-linejoin="round"/>
    <ellipse cx="11.36" cy="12.65" rx="2.48" ry="5.38" transform="translate(-5.62 11.73) rotate(-45)" fill="none" stroke="#555" data-stroke-color="2" stroke-linejoin="round"/>
    <path d="M16.45,12.22a5,5,0,0,1,7,0" fill="none" stroke="#000" data-stroke-color="1" stroke-linecap="round" stroke-linejoin="round"/>
    <path d="M11.77,7.54a5,5,0,0,0,0-7" fill="none" stroke="#000" data-stroke-color="1" stroke-linecap="round" stroke-linejoin="round"/>
    <line x1="18.08" y1="8.25" x2="21.58" y2="7.08" fill="none" stroke="#000" data-stroke-color="1" stroke-linecap="round" stroke-linejoin="round"/>
    <line x1="15.74" y1="5.91" x2="16.91" y2="2.4" fill="none" stroke="#000" data-stroke-color="1" stroke-linecap="round" stroke-linejoin="round"/>
    <circle cx="15.57" cy="8.25" r="0.5" fill="none" stroke="#555" data-stroke-color="2" stroke-linecap="round" stroke-linejoin="round"/>
    <circle cx="8.13" cy="5.33" r="0.5" fill="none" stroke="#555" data-stroke-color="2" stroke-linecap="round" stroke-linejoin="round"/>
    <circle cx="19.91" cy="4.1" r="0.5" fill="none" stroke="#555" data-stroke-color="2" stroke-linecap="round" stroke-linejoin="round"/>
    <circle cx="19.25" cy="14.1" r="0.5" fill="none" stroke="#555" data-stroke-color="2" stroke-linecap="round" stroke-linejoin="round"/>
  </g>
  <rect width="24" height="24" fill="none"/>
</svg>
