<svg xmlns="http://www.w3.org/2000/svg" viewBox="0 0 18 24">
  <polyline points="2.5 2.5 14.5 2.5 14.5 4.5" fill="none" stroke="#000" stroke-linecap="round" stroke-linejoin="round"/>
  <path d="M19.5,4.5V.5H5.5a2,2,0,0,0,0,4h15v19H5.5a2,2,0,0,1-2-2V2.5" transform="translate(-3)" fill="none" stroke="#000" stroke-linecap="round" stroke-linejoin="round"/>
  <circle cx="9" cy="14" r="6.27" fill="none" stroke="#555" stroke-linecap="round" stroke-linejoin="round"/>
  <path d="M16.63,9.78a3.12,3.12,0,0,1-1.36,2c-1.09-.27-2.18.55-1.91.55s.55,1.09.55,1.09c.27.27.82,0,.82,0,.68.68-1.09,1.91-1.09,2.18s.68.41.27.82a2.34,2.34,0,0,1-.82.55c0,1.36-1.36,1.36-1.64,1.36s-.82-1.09-.82-1.36.27-.55.27-.82-.55-.82-.55-.82c0-1.09-.82-.82-1.64-.82s-.82-1.09-.82-1.09,0-1.91,1.36-2.18,1.36.27,1.36.27c.55.55,1.64,0,2.18,0,0,0,.27-1.91-.27-1.64s-1,.06-1.09-.55C11.38,8.51,13.83,8,13.83,8" transform="translate(-3)" fill="none" stroke="#555" stroke-linecap="round" stroke-linejoin="round"/>
</svg>
