<svg version="1.1" id="Layer_1" xmlns="http://www.w3.org/2000/svg" xmlns:xlink="http://www.w3.org/1999/xlink" x="0px" y="0px" viewBox="0 0 19.5 22.9" enable-background="new 0 0 19.5 22.9" xml:space="preserve">
	<g id="Outline_Icons">
		<g>
			<path fill="none" stroke="#000" stroke-linecap="round" stroke-linejoin="round" stroke-miterlimit="10" d="M13.1,8.4
				c-1.4,0.9-2.1,2.6,0,4c1.1,2.9,3.3,2.1,4.5,0.8s1.9-5,1-7.1C16.6,7.6,14.8,7.3,13.1,8.4z"/>
			<path fill="none" stroke="#000" stroke-linecap="round" stroke-linejoin="round" stroke-miterlimit="10" d="M9.1,4.4
				c1.5,1.7,2.3,4-1.3,5.6c-1.6,3.6-4.1,2.3-5.7,0.3C0.5,8.4-0.1,3.2,1.3,0.5C4,2.7,7.3,2.2,9.1,4.4z"/>
			<path fill="none" stroke="#555" stroke-linecap="round" stroke-linejoin="round" stroke-miterlimit="10" d="M15.9,10.1
				c-3.4,1.7-5.1,6.3-5.1,6.3S9.3,9.7,3.6,4.6"/>
			<polygon fill="none" stroke="#000" stroke-linejoin="round" stroke-miterlimit="10" points="13.6,22.4 8.6,22.4 6.6,16.4
				15.6,16.4 		"/>
		</g>
	</g>
	<rect width="24" height="24" fill="none"/>
</svg>
