<svg xmlns="http://www.w3.org/2000/svg" viewBox="0 0 30 30"><title>roadmap-circle</title><ellipse cx="14.85" cy="15.11" rx="14.28" ry="14.34" fill="none" stroke="#000" stroke-linejoin="round" stroke-width="0.98"/><path d="M19.62,9c0,1.59-2.86,6-2.86,6S13.9,10.57,13.9,9a2.86,2.86,0,1,1,5.72,0Z" fill="none" stroke="#555" stroke-linecap="round" stroke-linejoin="round"/><ellipse cx="16.76" cy="8.97" rx="1.14" ry="1.15" fill="none" stroke="#555" stroke-linecap="round" stroke-linejoin="round"/><path d="M13.08,11.13l-1.23.24L6.79,9.73a.25.25,0,0,0-.36.26V20.31a.62.62,0,0,0,.35.53l5.33,2.34,5.84-1.48,5,1.27a.28.28,0,0,0,.37-.28v-11a.45.45,0,0,0-.37-.43l-2.28-.32" fill="none" stroke="#000" stroke-linecap="round" stroke-linejoin="round" stroke-width="0.98"/><line x1="11.87" y1="11.4" x2="11.87" y2="23.11" fill="none" stroke="#000" stroke-linejoin="round" stroke-width="0.98"/><line x1="17.88" y1="16.04" x2="17.88" y2="21.73" fill="none" stroke="#000" stroke-linecap="round" stroke-linejoin="round" stroke-width="0.98"/></svg>