<svg version="1.1" id="Layer_1" xmlns="http://www.w3.org/2000/svg" xmlns:xlink="http://www.w3.org/1999/xlink" x="0px" y="0px"
	 viewBox="0 0 24 24" enable-background="new 0 0 24 24" xml:space="preserve">
<g id="Outline_Icons">
	<g>

			<line fill="none" stroke="#555" stroke-linecap="round" stroke-linejoin="round" stroke-miterlimit="10" x1="7.9" y1="12.5" x2="11.4" y2="16.1"/>
		<path fill="none" stroke="#555" stroke-linecap="round" stroke-linejoin="round" stroke-miterlimit="10" d="M7.9,17.5
			c0.7,0.7,0.4,1.7-0.4,2.5c-1,1-5.7,2.1-5.7,2.1S3,17.4,4,16.4c0.8-0.8,1.8-1.1,2.5-0.4"/>
		<path fill="none" stroke="#000" stroke-linecap="round" stroke-linejoin="round" stroke-miterlimit="10" d="M6.5,13.9
			c0,0,10.9-11,11.7-11.7c1.1-1.1,5.3-1.8,5.3-1.8s-0.7,4.2-1.8,5.3C20.2,7.2,10,17.5,10,17.5L6.5,13.9z"/>
		<path fill="none" stroke="#000" stroke-linecap="round" stroke-linejoin="round" stroke-miterlimit="10" d="M15.3,12.2
			c0,0.7,0,3.5-0.4,4.6c-0.2,0.7-0.9,1.6-1.4,2.1c-1.4,1.4-3.5,3.5-3.5,3.5l0.7-5.6"/>
		<path fill="none" stroke="#000" stroke-linecap="round" stroke-linejoin="round" stroke-miterlimit="10" d="M11.8,8.6
			c-0.7,0-3.6,0-4.6,0.3c-0.7,0.2-1.6,1-2.1,1.4c-1.4,1.4-3.5,3.5-3.5,3.5l5.6-0.7"/>
	</g>
</g>
<g id="invisible_shape">
	<rect fill="none" width="24" height="24"/>
</g>
</svg>
