<svg xmlns="http://www.w3.org/2000/svg" viewBox="0 0 24 24">
  <g>
    <path d="M13,17l1.27-5.52a1.26,1.26,0,0,1,1.23-1,1,1,0,0,1,0,2h-6a1,1,0,0,1,0-2,1.26,1.26,0,0,1,1.23,1L12,17" fill="none" stroke="#555" data-stroke-color="2" stroke-linecap="round" stroke-linejoin="round"/>
    <circle cx="12.5" cy="10.5" r="7" fill="none" stroke="#000" data-stroke-color="1" stroke-miterlimit="10"/>
    <polyline points="9.5 17 9.5 19.5 15.5 19.5 15.5 17" fill="none" stroke="#000" data-stroke-color="1" stroke-linejoin="round"/>
    <rect x="10.5" y="19.5" width="4" height="2" fill="none" stroke="#000" data-stroke-color="1" stroke-linejoin="round"/>
    <line x1="12.5" y1="21.5" x2="12.5" y2="23.5" fill="none" stroke="#000" data-stroke-color="1" stroke-linecap="round" stroke-linejoin="round"/>
    <line x1="12.5" y1="0.5" x2="12.5" y2="1.5" fill="none" stroke="#555" data-stroke-color="2" stroke-linecap="round" stroke-linejoin="round"/>
    <line x1="19.57" y1="3.43" x2="18.86" y2="4.14" fill="none" stroke="#555" data-stroke-color="2" stroke-linecap="round" stroke-linejoin="round"/>
    <line x1="22.5" y1="10.5" x2="21.5" y2="10.5" fill="none" stroke="#555" data-stroke-color="2" stroke-linecap="round" stroke-linejoin="round"/>
    <line x1="19.57" y1="17.57" x2="18.86" y2="16.86" fill="none" stroke="#555" data-stroke-color="2" stroke-linecap="round" stroke-linejoin="round"/>
    <line x1="5.43" y1="3.43" x2="6.14" y2="4.14" fill="none" stroke="#555" data-stroke-color="2" stroke-linecap="round" stroke-linejoin="round"/>
    <line x1="2.5" y1="10.5" x2="3.5" y2="10.5" fill="none" stroke="#555" data-stroke-color="2" stroke-linecap="round" stroke-linejoin="round"/>
    <line x1="5.43" y1="17.57" x2="6.14" y2="16.86" fill="none" stroke="#555" data-stroke-color="2" stroke-linecap="round" stroke-linejoin="round"/>
  </g>
  <rect width="24" height="24" fill="none"/>
</svg>
