<svg xmlns="http://www.w3.org/2000/svg" viewBox="0 0 8.57 11.15"><title>social-pinterest</title><path d="M5.55.27a3.8,3.8,0,0,1,4,3.66C9.57,6,8.51,8.33,6.14,8.33a1.81,1.81,0,0,1-1.55-.8c-.51,2-.47,2.32-1.59,3.86l-.09,0-.06-.07c0-.42-.1-.84-.1-1.26a24.4,24.4,0,0,1,.94-4.67,2.62,2.62,0,0,1-.21-1.13c0-.68.47-1.53,1.23-1.53a.86.86,0,0,1,.86,1C5.56,4.58,5,5.4,5,6.25a1,1,0,0,0,1,1C7.54,7.22,8,5,8,3.81A2.39,2.39,0,0,0,5.37,1.36,3,3,0,0,0,2.24,4.43c0,.86.53,1.31.53,1.51s-.13.79-.35.79l-.11,0C1.35,6.43,1,5.15,1,4.27,1,1.8,3.26.27,5.55.27Z" transform="translate(-1 -0.27)" fill="#000"/></svg>
