<svg xmlns="http://www.w3.org/2000/svg" viewBox="0 0 10.56 8.57"><title>social-twitter</title><path d="M9.77,4.12c0,.09,0,.19,0,.28a6.11,6.11,0,0,1-6.16,6.16,6.11,6.11,0,0,1-3.32-1,4.49,4.49,0,0,0,.52,0A4.33,4.33,0,0,0,3.5,8.69a2.17,2.17,0,0,1-2-1.5,2.67,2.67,0,0,0,.41,0,2.29,2.29,0,0,0,.57-.07A2.16,2.16,0,0,1,.72,5V5a2.18,2.18,0,0,0,1,.27A2.17,2.17,0,0,1,1,2.38,6.15,6.15,0,0,0,5.49,4.65a2.39,2.39,0,0,1-.05-.5A2.17,2.17,0,0,1,9.18,2.67a4.25,4.25,0,0,0,1.37-.52,2.15,2.15,0,0,1-1,1.19A4.34,4.34,0,0,0,10.85,3,4.66,4.66,0,0,1,9.77,4.12Z" transform="translate(-0.29 -1.99)" fill="#000"/></svg>
