<svg xmlns="http://www.w3.org/2000/svg" viewBox="0 0 10.24 10.22"><title>social-instagram</title><path d="M5.14,3.43A1.71,1.71,0,1,0,6.85,5.14h0A1.72,1.72,0,0,0,5.14,3.43ZM10.25,3A3.06,3.06,0,0,0,9.42.86,3.06,3.06,0,0,0,7.26,0H3A3.06,3.06,0,0,0,.86.86,3.06,3.06,0,0,0,0,3V7.26A3.06,3.06,0,0,0,.86,9.42,3.06,3.06,0,0,0,3,10.25H7.26a3.06,3.06,0,0,0,2.16-.83,3.06,3.06,0,0,0,.83-2.16V5.14C10.25,4.43,10.29,3.73,10.25,3ZM5.14,7.78A2.64,2.64,0,1,1,7.78,5.14,2.64,2.64,0,0,1,5.14,7.78ZM7.89,3a.62.62,0,1,1,.62-.62h0a.61.61,0,0,1-.6.62Z" transform="translate(-0.03 -0.03)" fill="#000"/></svg>
