<svg xmlns="http://www.w3.org/2000/svg" viewBox="0 0 30 30"><title>speaker-circle</title><polyline points="16.45 13.76 17.7 13.76 17.7 16.63 20.56 13.76 23.05 13.76 23.05 7.3 12.35 7.3 12.35 9.75" fill="none" stroke="#555" stroke-linecap="round" stroke-linejoin="round"/><path d="M10.93,17.45V19L8.11,20A1.69,1.69,0,0,0,7,21.63V22.7H17.71V21.63A1.69,1.69,0,0,0,16.6,20l-2.81-1V17.36" fill="none" stroke="#000" stroke-linejoin="round" stroke-width="0.98"/><ellipse cx="12.28" cy="14.49" rx="2.82" ry="3.4" fill="none" stroke="#000" stroke-linejoin="round" stroke-width="0.98"/><path d="M15.09,14.18l-.27,0a1.8,1.8,0,0,1-2.1-1.09,2.61,2.61,0,0,1-2.12,1.09,2.25,2.25,0,0,1-1.09-.26" fill="none" stroke="#000" stroke-linejoin="round" stroke-width="0.98"/><ellipse cx="14.85" cy="15.11" rx="14.28" ry="14.34" fill="none" stroke="#000" stroke-linejoin="round" stroke-width="0.98"/></svg>