<svg xmlns="http://www.w3.org/2000/svg" viewBox="0 0 30 30"><title>support-circle</title><ellipse cx="14.85" cy="15.11" rx="14.28" ry="14.34" fill="none" stroke="#000" stroke-linejoin="round" stroke-width="0.98"/><path d="M23.8,21V14.74c0-1.37-1.07-2.16-2.51-3.31" fill="none" stroke="#000" stroke-linecap="round" stroke-linejoin="round" stroke-width="0.93"/><path d="M6.16,21V14.73c0-1.4,1.13-2.2,2.62-3.4" fill="none" stroke="#000" stroke-linecap="round" stroke-linejoin="round" stroke-width="0.93"/><path d="M19.7,13.78a6.28,6.28,0,0,0,1.59-3.53c0-3.94-5.19-5.19-6.35-.39-1.15-4.8-6.35-3.55-6.35.39a6.42,6.42,0,0,0,1.67,3.63" fill="none" stroke="#555" stroke-linecap="round" stroke-linejoin="round" stroke-width="0.94"/><path d="M12.12,15.89a30.42,30.42,0,0,0,2.82,2.39,30.43,30.43,0,0,0,2.86-2.43" fill="none" stroke="#555" stroke-linecap="round" stroke-linejoin="round" stroke-width="0.94"/><path d="M21.88,16.71l-2.64-2.64a1,1,0,0,0-1.44,1.44L20,18.63V20.1a2.89,2.89,0,0,0,.53,1.67l.5.7" fill="none" stroke="#000" stroke-linecap="round" stroke-linejoin="round" stroke-width="0.93"/><path d="M8.08,16.71l2.64-2.64a1,1,0,0,1,1.44,1.44L10,18.63V20.1a2.89,2.89,0,0,1-.53,1.67l-.5.7" fill="none" stroke="#000" stroke-linecap="round" stroke-linejoin="round" stroke-width="0.93"/></svg>