<svg xmlns="http://www.w3.org/2000/svg" viewBox="0 0 30 30"><title>tools-circle</title><ellipse cx="14.85" cy="15.11" rx="14.28" ry="14.34" fill="none" stroke="#000" stroke-linejoin="round" stroke-width="0.98"/><path d="M13,21.92a1.46,1.46,0,0,1-2.92,0V12.08l1.46-3.28L13,12.08Z" fill="none" stroke="#000" stroke-linejoin="round" stroke-width="0.93"/><line x1="10.12" y1="21.19" x2="13.03" y2="21.19" fill="none" stroke="#000" stroke-linejoin="round" stroke-width="0.93"/><line x1="10.12" y1="19.74" x2="13.03" y2="19.74" fill="none" stroke="#000" stroke-linejoin="round" stroke-width="0.93"/><line x1="15.22" y1="8.81" x2="16.68" y2="8.81" fill="none" stroke="#555" stroke-linecap="round" stroke-linejoin="round" stroke-width="0.94"/><line x1="15.22" y1="11.72" x2="16.68" y2="11.72" fill="none" stroke="#555" stroke-linecap="round" stroke-linejoin="round" stroke-width="0.94"/><line x1="15.22" y1="14.64" x2="16.68" y2="14.64" fill="none" stroke="#555" stroke-linecap="round" stroke-linejoin="round" stroke-width="0.94"/><line x1="15.22" y1="17.55" x2="16.68" y2="17.55" fill="none" stroke="#555" stroke-linecap="round" stroke-linejoin="round" stroke-width="0.94"/><line x1="15.22" y1="20.47" x2="16.68" y2="20.47" fill="none" stroke="#555" stroke-linecap="round" stroke-linejoin="round" stroke-width="0.94"/><rect x="15.22" y="6.62" width="4.37" height="16.76" fill="none" stroke="#000" stroke-linejoin="round" stroke-width="0.93"/><line x1="10.12" y1="12.08" x2="13.03" y2="12.08" fill="none" stroke="#000" stroke-linejoin="round" stroke-width="0.93"/><line x1="11.57" y1="12.08" x2="11.57" y2="19.74" fill="none" stroke="#000" stroke-linejoin="round" stroke-width="0.93"/><path d="M10.12,21.92a1.46,1.46,0,0,0,2.92,0V19.74H10.12Z" fill="none" stroke="#555" stroke-linecap="round" stroke-miterlimit="10" stroke-width="0.94"/><line x1="10.12" y1="21.19" x2="13.03" y2="21.19" fill="none" stroke="#555" stroke-linecap="round" stroke-linejoin="round" stroke-width="0.94"/></svg>