<?xml version="1.0" encoding="utf-8"?>
<!-- Generator: Adobe Illustrator 21.0.2, SVG Export Plug-In . SVG Version: 6.00 Build 0)  -->
<svg version="1.1" id="Layer_1" xmlns="http://www.w3.org/2000/svg" xmlns:xlink="http://www.w3.org/1999/xlink" x="0px" y="0px"
	 viewBox="0 0 24 24" enable-background="new 0 0 24 24" xml:space="preserve">
<ellipse transform="matrix(0.6278 -0.7784 0.7784 0.6278 -3.2046 11.3154)" fill="none" stroke="#555" stroke-linecap="round" stroke-linejoin="round" stroke-miterlimit="10" cx="10.2" cy="9" rx="0.8" ry="0.8"/>
<path fill="none" stroke="#000" stroke-linecap="round" stroke-linejoin="round" stroke-miterlimit="10" d="M8.2,19.2
	c-3.1,0-5.7-2.5-5.7-5.7c0-2.5,2.3-13,5.7-13s5.7,10.5,5.7,13C13.9,16.6,11.4,19.2,8.2,19.2z"/>
<line fill="none" stroke="#555" stroke-linecap="round" stroke-linejoin="round" stroke-miterlimit="10" x1="8.2" y1="12" x2="8.2" y2="23.5"/>
<line fill="none" stroke="#555" stroke-linecap="round" stroke-linejoin="round" stroke-miterlimit="10" x1="10.3" y1="13.1" x2="8.5" y2="14.9"/>
<line fill="none" stroke="#555" stroke-linecap="round" stroke-linejoin="round" stroke-miterlimit="10" x1="5.4" y1="15.1" x2="8.2" y2="18"/>
<ellipse transform="matrix(0.6278 -0.7784 0.7784 0.6278 -1.6338 7.6315)" fill="none" stroke="#555" stroke-linecap="round" stroke-linejoin="round" stroke-miterlimit="10" cx="7.2" cy="5.5" rx="0.8" ry="0.8"/>
<ellipse transform="matrix(0.6278 -0.7784 0.7784 0.6278 -6.7033 8.6065)" fill="none" stroke="#555" stroke-linecap="round" stroke-linejoin="round" stroke-miterlimit="10" cx="5.6" cy="11.3" rx="0.8" ry="0.8"/>
<path fill="none" stroke="#000" stroke-linecap="round" stroke-linejoin="round" stroke-miterlimit="10" d="M13.6,10.9
	c0.7-1.8,1.6-3.4,2.7-3.4c2.4,0,4,7.4,4,9.2c0,2.2-1.8,4-4,4c-1.6,0-3.3-0.9-3.9-2.9"/>
<line fill="none" stroke="#555" stroke-linecap="round" stroke-linejoin="round" stroke-miterlimit="10" x1="16.4" y1="15.1" x2="16.4" y2="23.1"/>
<line fill="none" stroke="#555" stroke-linecap="round" stroke-linejoin="round" stroke-miterlimit="10" x1="18.1" y1="15.9" x2="16.7" y2="17.3"/>
<line fill="none" stroke="#555" stroke-linecap="round" stroke-linejoin="round" stroke-miterlimit="10" x1="14.8" y1="18.1" x2="16.4" y2="19.8"/>
<line fill="none" stroke="#000" stroke-linecap="round" stroke-linejoin="round" stroke-miterlimit="10" x1="4.8" y1="23.5" x2="19.2" y2="23.5"/>
</svg>
