<svg xmlns="http://www.w3.org/2000/svg" viewBox="0 0 24 24">
  <g>
    <circle cx="12" cy="12" r="11.5" fill="none" stroke="#000" data-stroke-color="1" stroke-linejoin="round"/>
    <path d="M9,3.24A11.48,11.48,0,0,1,8.55,1" fill="none" stroke="#000" data-stroke-color="1" stroke-linejoin="round"/>
    <path d="M17.71,11.44a11.69,11.69,0,0,1-7-4.59" fill="none" stroke="#000" data-stroke-color="1" stroke-linejoin="round"/>
    <path d="M23.45,10.93a10.29,10.29,0,0,1-1.74.51" fill="none" stroke="#000" data-stroke-color="1" stroke-linejoin="round"/>
    <path d="M15.46,18.18a24.1,24.1,0,0,1-6.14,5" fill="none" stroke="#000" data-stroke-color="1" stroke-linejoin="round"/>
    <path d="M18.82,13.24a25.2,25.2,0,0,1-1.49,2.6" fill="none" stroke="#000" data-stroke-color="1" stroke-linejoin="round"/>
    <path d="M21.29,5.22a23.65,23.65,0,0,1-.93,4.33" fill="none" stroke="#000" data-stroke-color="1" stroke-linejoin="round"/>
    <path d="M3.79,16.6C3,16.41,2,16.2,1.19,16" fill="none" stroke="#000" data-stroke-color="1" stroke-linejoin="round"/>
    <path d="M10.5,17.44A37.34,37.34,0,0,1,5.71,17" fill="none" stroke="#000" data-stroke-color="1" stroke-linejoin="round"/>
    <path d="M15,17.44c-0.52,0-1,0-1.48,0" fill="none" stroke="#000" data-stroke-color="1" stroke-linejoin="round"/>
    <path d="M22.72,16.17a39.15,39.15,0,0,1-4.8.86" fill="none" stroke="#000" data-stroke-color="1" stroke-linejoin="round"/>
    <path d="M7.71,4.82A11.41,11.41,0,0,1,4.36,3.41" fill="none" stroke="#000" data-stroke-color="1" stroke-linejoin="round"/>
    <path d="M18.08,2.23a11.92,11.92,0,0,1-6.39,2.89" fill="none" stroke="#000" data-stroke-color="1" stroke-linejoin="round"/>
    <path d="M12.87,18.66A21.26,21.26,0,0,1,15.14,23" fill="none" stroke="#000" data-stroke-color="1" stroke-linejoin="round"/>
    <path d="M7.54,13.37a22.74,22.74,0,0,1,3.51,2.91" fill="none" stroke="#000" data-stroke-color="1" stroke-linejoin="round"/>
    <path d="M0.56,10.82a17.31,17.31,0,0,1,3.31.82" fill="none" stroke="#000" data-stroke-color="1" stroke-linejoin="round"/>
    <path d="M4.33,17.93a14.59,14.59,0,0,1-1,1.64" fill="none" stroke="#000" data-stroke-color="1" stroke-linejoin="round"/>
    <path d="M5.47,14.44a13.72,13.72,0,0,1-.36,1.64" fill="none" stroke="#000" data-stroke-color="1" stroke-linejoin="round"/>
    <path d="M3,4.77a12.26,12.26,0,0,1,2.46,5.64" fill="none" stroke="#000" data-stroke-color="1" stroke-linejoin="round"/>
    <circle cx="9.69" cy="5.13" r="2" fill="none" stroke="#555" data-stroke-color="2" stroke-linejoin="round"/>
    <circle cx="5.71" cy="12.44" r="2" fill="none" stroke="#555" data-stroke-color="2" stroke-linejoin="round"/>
    <circle cx="4.71" cy="17" r="1" fill="none" stroke="#555" data-stroke-color="2" stroke-linejoin="round"/>
    <circle cx="12" cy="17.44" r="1.5" fill="none" stroke="#555" data-stroke-color="2" stroke-linejoin="round"/>
    <circle cx="16.42" cy="17.03" r="1.5" fill="none" stroke="#555" data-stroke-color="2" stroke-linejoin="round"/>
    <circle cx="19.71" cy="11.44" r="2" fill="none" stroke="#555" data-stroke-color="2" stroke-linejoin="round"/>
  </g>
  <rect width="24" height="24" fill="none"/>
</svg>
