<svg xmlns="http://www.w3.org/2000/svg" viewBox="0 0 10.29 10.29"><defs></defs><title>fa-instagram-alt</title><path d="M5.14 3.43a1.71 1.71 0 1 0 1.71 1.71 1.72 1.72 0 0 0-1.71-1.71zm5.11-.41A3.06 3.06 0 0 0 9.42.86 3.06 3.06 0 0 0 7.26.03H3.02A3.06 3.06 0 0 0 .86.86a3.06 3.06 0 0 0-.83 2.16v4.24a3.06 3.06 0 0 0 .83 2.16 3.06 3.06 0 0 0 2.16.83h4.24a3.06 3.06 0 0 0 2.16-.83 3.06 3.06 0 0 0 .83-2.16V5.14s.04-1.41 0-2.12zM5.14 7.78a2.64 2.64 0 1 1 2.64-2.64 2.64 2.64 0 0 1-2.64 2.64zm2.75-4.77a.62.62 0 1 1 .62-.62.61.61 0 0 1-.62.62z"/></svg>
