<?xml version="1.0" encoding="utf-8"?>
<!-- Generator: Adobe Illustrator 21.1.0, SVG Export Plug-In . SVG Version: 6.00 Build 0)  -->
<svg version="1.1" id="Layer_1" xmlns="http://www.w3.org/2000/svg" xmlns:xlink="http://www.w3.org/1999/xlink" x="0px" y="0px"
	 viewBox="0 0 33.7 94.3" style="enable-background:new 0 0 33.7 94.3;" xml:space="preserve">
<style type="text/css">
	.st0{fill:#EBEBEC;}
	.st1{fill:none;stroke:#000000;stroke-width:3;stroke-linecap:round;stroke-linejoin:round;stroke-miterlimit:10;}
	.st2{fill:#FFFFFF;}
	.st3{fill:none;stroke:#000000;stroke-width:10.688;stroke-linecap:round;stroke-linejoin:round;stroke-miterlimit:10;}
</style>
<g>
	<g>
		<g>
			<path d="M17.7,7.6c2.4,2.9,6,4.6,8.4,7.4c1.6,1.8,4.7,1.6,6.3,0c1.8-1.8,1.6-4.5,0-6.3c-2.4-2.9-6-4.6-8.4-7.4
				c-1.6-1.8-4.7-1.6-6.3,0C15.9,3.1,16.2,5.7,17.7,7.6L17.7,7.6z"/>
		</g>
	</g>
	<g>
		<g>
			<path d="M4.5,52.6c2.5,0,5,0,7.5,0c2.3,0,4.6-2,4.5-4.5c-0.1-2.4-2-4.5-4.5-4.5c-2.5,0-5,0-7.5,0c-2.3,0-4.6,2-4.5,4.5
				C0.1,50.5,2,52.6,4.5,52.6L4.5,52.6z"/>
		</g>
	</g>
	<g>
		<g>
			<path d="M24,93c2.3-2.4,4.6-4.8,6.9-7.3c1.7-1.7,1.7-4.6,0-6.3c-1.7-1.7-4.6-1.7-6.3,0c-2.3,2.4-4.6,4.8-6.9,7.3
				c-1.7,1.7-1.7,4.6,0,6.3C19.4,94.7,22.4,94.7,24,93L24,93z"/>
		</g>
	</g>
</g>
</svg>
